# xmcd CD database file
#
# Track frame offsets:
#	150
#	81102
#	137660
#	155785
#	173780
#	249145
#
# Disc length: 3568 seconds
#
# Revision: 0
# Processed by: cddbd v1.5PL3 Copyright (c) Steve Scherf et al.
# Submitted via: CDex 1.51
#
DISCID=430dee06
DTITLE=Derek Bailey and Tony Oxley - Soho Suites - disc 3
DYEAR=1996
DGENRE=Jazz
TTITLE0=Rivington
TTITLE1=Kenmare
TTITLE2=Lafayette
TTITLE3=Grand
TTITLE4=Lispenard
TTITLE5=Leonard
EXTD=YEAR: 1996
EXTT0=
EXTT1=
EXTT2=
EXTT3=
EXTT4=
EXTT5=
PLAYORDER=
